<?xml version="1.0" encoding="UTF-8" standalone="no"?>
<svg
   height="512"
   width="512"
   viewBox="0 0 512 512"
   version="1.1"
   id="svg4"
   xmlns="http://www.w3.org/2000/svg"
   xmlns:svg="http://www.w3.org/2000/svg">
  <defs
     id="defs8" />
  <path
     opacity="1"
     fill="#1e3050"
     d="m 0,416 c 0,17.7 14.3,32 32,32 h 54.7 c 12.3,28.3 40.5,48 73.3,48 32.8,0 61,-19.7 73.3,-48 H 480 c 17.7,0 32,-14.3 32,-32 0,-17.7 -14.3,-32 -32,-32 H 233.3 C 221,355.7 192.8,336 160,336 127.2,336 99,355.7 86.7,384 H 32 C 14.3,384 0,398.3 0,416 Z m 128,0 a 32,32 0 1 1 64,0 32,32 0 1 1 -64,0 z M 320,256 a 32,32 0 1 1 64,0 32,32 0 1 1 -64,0 z m 32,-80 c -32.8,0 -61,19.7 -73.3,48 H 32 c -17.7,0 -32,14.3 -32,32 0,17.7 14.3,32 32,32 h 246.7 c 12.3,28.3 40.5,48 73.3,48 32.8,0 61,-19.7 73.3,-48 H 480 c 17.7,0 32,-14.3 32,-32 0,-17.7 -14.3,-32 -32,-32 H 425.3 C 413,195.7 384.8,176 352,176 Z M 192,128 a 32,32 0 1 1 0,-64 32,32 0 1 1 0,64 z M 265.3,64 C 253,35.7 224.8,16 192,16 159.2,16 131,35.7 118.7,64 H 32 C 14.3,64 0,78.3 0,96 c 0,17.7 14.3,32 32,32 h 86.7 c 12.3,28.3 40.5,48 73.3,48 32.8,0 61,-19.7 73.3,-48 H 480 c 17.7,0 32,-14.3 32,-32 0,-17.7 -14.3,-32 -32,-32 z"
     id="path2" />
</svg>
